HIERARCHY
ROOT hip
{
  OFFSET 0 0 0
  CHANNELS 6 Xposition Yposition Zposition Zrotation Yrotation Xrotation
  JOINT abdomen
  {
    OFFSET 0 20.6881 -0.73152
    CHANNELS 3 Zrotation Xrotation Yrotation
    JOINT chest
    {
      OFFSET 0 11.7043 -0.48768
      CHANNELS 3 Zrotation Xrotation Yrotation
      JOINT neck
      {
        OFFSET 0 22.1894 -2.19456
        CHANNELS 3 Zrotation Xrotation Yrotation
        JOINT head
        {
          OFFSET -0.24384 7.07133 1.2192
          CHANNELS 3 Zrotation Xrotation Yrotation
          JOINT leftEye
          {
            OFFSET 4.14528 8.04674 8.04672
            CHANNELS 3 Zrotation Xrotation Yrotation
            End Site
            {
              OFFSET 1 0 0
            }
          }
          JOINT rightEye
          {
            OFFSET -3.6576 8.04674 8.04672
            CHANNELS 3 Zrotation Xrotation Yrotation
            End Site
            {
              OFFSET 1 0 0
            }
          }
        }
      }
      JOINT rCollar
      {
        OFFSET -2.68224 19.2634 -4.8768
        CHANNELS 3 Zrotation Xrotation Yrotation
        JOINT rShldr
        {
          OFFSET -8.77824 -1.95073 1.46304
          CHANNELS 3 Zrotation Xrotation Yrotation
          JOINT rForeArm
          {
            OFFSET -28.1742 -1.7115 0.48768
            CHANNELS 3 Zrotation Xrotation Yrotation
            JOINT rHand
            {
              OFFSET -22.5879 0.773209 7.07136
              CHANNELS 3 Zrotation Xrotation Yrotation
              JOINT rThumb1
              {
                OFFSET -1.2192 -0.487915 3.41376
                CHANNELS 3 Zrotation Xrotation Yrotation
                JOINT rThumb2
                {
                  OFFSET -3.37035 -0.52449 3.41376
                  CHANNELS 3 Zrotation Xrotation Yrotation
                  End Site
                  {
                    OFFSET -1.78271 -1.18214 1.43049
                  }
                }
              }
              JOINT rIndex1
              {
                OFFSET -7.75947 0.938293 5.60832
                CHANNELS 3 Zrotation Xrotation Yrotation
                JOINT rIndex2
                {
                  OFFSET -2.54057 -0.884171 1.56538
                  CHANNELS 3 Zrotation Xrotation Yrotation
                  End Site
                  {
                    OFFSET -1.62519 -0.234802 1.16502
                  }
                }
              }
              JOINT rMid1
              {
                OFFSET -8.24714 1.18213 3.41376
                CHANNELS 3 Zrotation Xrotation Yrotation
                JOINT rMid2
                {
                  OFFSET -3.10165 -0.590103 1.0647
                  CHANNELS 3 Zrotation Xrotation Yrotation
                  End Site
                  {
                    OFFSET -2.48547 -0.328903 0.83742
                  }
                }
              }
              JOINT rRing1
              {
                OFFSET -8.82822 0.546677 1.51678
                CHANNELS 3 Zrotation Xrotation Yrotation
                JOINT rRing2
                {
                  OFFSET -2.60934 -0.819778 -0.0198488
                  CHANNELS 3 Zrotation Xrotation Yrotation
                  End Site
                  {
                    OFFSET -2.33842 -0.294052 0.168128
                  }
                }
              }
              JOINT rPinky1
              {
                OFFSET -8.27202 -0.0477905 -0.4584
                CHANNELS 3 Zrotation Xrotation Yrotation
                JOINT rPinky2
                {
                  OFFSET -1.82734 -0.647385 -0.700984
                  CHANNELS 3 Zrotation Xrotation Yrotation
                  End Site
                  {
                    OFFSET -1.69225 -0.51767 -0.607171
                  }
                }
              }
            }
          }
        }
      }
      JOINT lCollar
      {
        OFFSET 2.68224 19.2634 -4.8768
        CHANNELS 3 Zrotation Xrotation Yrotation
        JOINT lShldr
        {
          OFFSET 8.77824 -1.95073 1.46304
          CHANNELS 3 Zrotation Xrotation Yrotation
          JOINT lForeArm
          {
            OFFSET 28.1742 -1.7115 0.48768
            CHANNELS 3 Zrotation Xrotation Yrotation
            JOINT lHand
            {
              OFFSET 22.5879 0.773209 7.07136
              CHANNELS 3 Zrotation Xrotation Yrotation
              JOINT lThumb1
              {
                OFFSET 1.2192 -0.487915 3.41376
                CHANNELS 3 Zrotation Xrotation Yrotation
                JOINT lThumb2
                {
                  OFFSET 3.37035 -0.52449 3.41376
                  CHANNELS 3 Zrotation Xrotation Yrotation
                  End Site
                  {
                    OFFSET 1.78271 -1.18214 1.43049
                  }
                }
              }
              JOINT lIndex1
              {
                OFFSET 7.75947 0.938293 5.60832
                CHANNELS 3 Zrotation Xrotation Yrotation
                JOINT lIndex2
                {
                  OFFSET 2.54057 -0.884171 1.56538
                  CHANNELS 3 Zrotation Xrotation Yrotation
                  End Site
                  {
                    OFFSET 1.62519 -0.234802 1.16502
                  }
                }
              }
              JOINT lMid1
              {
                OFFSET 8.24714 1.18213 3.41376
                CHANNELS 3 Zrotation Xrotation Yrotation
                JOINT lMid2
                {
                  OFFSET 3.10165 -0.590103 1.0647
                  CHANNELS 3 Zrotation Xrotation Yrotation
                  End Site
                  {
                    OFFSET 2.48547 -0.328903 0.83742
                  }
                }
              }
              JOINT lRing1
              {
                OFFSET 8.82822 0.546677 1.51678
                CHANNELS 3 Zrotation Xrotation Yrotation
                JOINT lRing2
                {
                  OFFSET 2.60934 -0.819778 -0.0198488
                  CHANNELS 3 Zrotation Xrotation Yrotation
                  End Site
                  {
                    OFFSET 2.33842 -0.294052 0.168128
                  }
                }
              }
              JOINT lPinky1
              {
                OFFSET 8.27202 -0.0477905 -0.4584
                CHANNELS 3 Zrotation Xrotation Yrotation
                JOINT lPinky2
                {
                  OFFSET 1.82734 -0.647385 -0.700984
                  CHANNELS 3 Zrotation Xrotation Yrotation
                  End Site
                  {
                    OFFSET 1.69225 -0.51767 -0.607171
                  }
                }
              }
            }
          }
        }
      }
    }
  }
  JOINT rButtock
  {
    OFFSET -8.77824 4.35084 1.2192
    CHANNELS 3 Zrotation Xrotation Yrotation
    JOINT rThigh
    {
      OFFSET 0 -1.70687 -2.19456
      CHANNELS 3 Zrotation Xrotation Yrotation
      JOINT rShin
      {
        OFFSET 0 -36.8199 0.73152
        CHANNELS 3 Zrotation Xrotation Yrotation
        JOINT rFoot
        {
          OFFSET 0.73152 -45.1104 -5.12064
          CHANNELS 3 Zrotation Xrotation Yrotation
          End Site
          {
            OFFSET -1.1221 -3.69964 12.103
          }
        }
      }
    }
  }
  JOINT lButtock
  {
    OFFSET 8.77824 4.35084 1.2192
    CHANNELS 3 Zrotation Xrotation Yrotation
    JOINT lThigh
    {
      OFFSET 0 -1.70687 -2.19456
      CHANNELS 3 Zrotation Xrotation Yrotation
      JOINT lShin
      {
        OFFSET 0 -36.8199 0.73152
        CHANNELS 3 Zrotation Xrotation Yrotation
        JOINT lFoot
        {
          OFFSET -0.73152 -45.1104 -5.12064
          CHANNELS 3 Zrotation Xrotation Yrotation
          End Site
          {
            OFFSET 1.1221 -3.69964 12.103
          }
        }
      }
    }
  }
}
MOTION
Frames:	6
Frame Time:	0.00833333
0.676621 84.4292 -134.921 0.0 0.0 0.0 -0.937502 -0.00467891 -0.0260743 -0.258764 -0.00545772 -0.044833 -8.47028e-15 7.95139e-16 1.86361e-16 -2.55625e-14 9.54166e-15 5.0628e-16 -0.0 0.0 0.0 -0.0 0.0 0.0 -4.2754e-15 -1.0871e-17 9.93923e-17 -8.7116e-14 -3.66509e-16 2.38542e-15 -1.5541e-12 4.57404e-13 5.08889e-14 -1.77955e-11 -5.07149e-13 2.51264e-13 -4.19761e-11 -1.06552e-13 6.80639e-13 -7.2488e-11 -1.87653e-13 1.15693e-12 -4.19686e-11 -1.00585e-13 6.61555e-13 7.73091 5.47488 0.417314 -4.19747e-11 -1.05853e-13 6.74278e-13 2.90554 0.965183 0.102902 -4.19657e-11 -1.05356e-13 6.71097e-13 10.2786 0.731801 0.0259123 -4.1977e-11 -1.07741e-13 6.74278e-13 2.22167 -0.733487 -0.20892 -4.27262e-15 -1.0871e-17 0.0 -9.30379e-14 -4.5969e-16 -1.98785e-16 -1.55554e-12 -4.7112e-13 2.54444e-14 -1.77796e-11 4.19759e-13 2.76708e-13 -4.19459e-11 -1.09241e-13 6.61555e-13 -7.24427e-11 -1.94014e-13 1.16011e-12 -4.19555e-11 -1.05356e-13 6.77458e-13 -7.73091 5.47488 -0.417314 -4.19478e-11 -1.08636e-13 6.61555e-13 -2.90554 0.965183 -0.102902 -4.19537e-11 -1.08636e-13 6.68712e-13 -10.2786 0.731801 -0.0259123 -4.19469e-11 -1.11319e-13 6.61555e-13 -2.22167 -0.733487 0.20892 -2.03217e-16 0.0 -3.88251e-19 -0.229351 -1.95204 -0.0134895 -0.00909722 -2.01822 -0.0753378 -0.480866 3.96951 0.135123 2.03217e-16 0.0 3.88251e-19 -1.19851 -5.36328 0.104966 4.38613e-05 4.16075 -0.0211877 0.49546 1.20191 -0.0808391
-0.459353 83.2208 -134.414 -2.2324 -6.2733 -1.8121 0.51892 5.37479 -1.25975 0.914483 -2.75286 -0.242307 -1.61492 2.62341 -2.0362 -0.177464 2.40045 -3.88217 -0.0 0.0 0.0 -0.0 0.0 0.0 8.12597e-15 -3.47712e-14 3.13909e-14 15.2295 -5.99242 0.364619 -18.0531 -15.6237 15.1 0.0176773 3.01276 0.421482 4.03564e-10 -3.61879e-10 -1.91604e-10 6.95372e-10 -6.25244e-10 -3.33409e-10 4.03571e-10 -3.61875e-10 -1.91618e-10 7.73091 5.47488 0.417314 4.03566e-10 -3.61878e-10 -1.91607e-10 2.90554 0.965183 0.102902 4.03576e-10 -3.61878e-10 -1.9161e-10 10.2786 0.731801 0.0259123 4.03561e-10 -3.61881e-10 -1.91606e-10 2.22167 -0.733487 -0.20892 8.11434e-15 -3.47697e-14 3.12826e-14 -22.6143 3.79517 5.00243 6.91815 -3.96577 -9.76401 -0.00815796 -2.00425 0.281057 -4.10614e-10 -4.65298e-10 -9.65898e-11 -7.10208e-10 -8.04578e-10 -1.69617e-10 -4.10621e-10 -4.65296e-10 -9.6576e-11 -7.73091 5.47488 -0.417314 -4.10614e-10 -4.65297e-10 -9.65888e-11 -2.90554 0.965183 -0.102902 -4.1062e-10 -4.65298e-10 -9.65846e-11 -10.2786 0.731801 -0.0259123 -4.10612e-10 -4.65299e-10 -9.65914e-11 -2.22167 -0.733487 0.20892 -2.03217e-16 0.0 -3.88251e-19 2.07295 -1.36351 1.49319 0.024808 4.70218 0.0848433 -1.08413 -1.72556 -5.28784 2.03217e-16 0.0 3.88251e-19 0.626343 -12.5246 -0.153793 0.0262195 13.5725 -0.134452 0.675066 -0.844855 2.01344
-0.510734 83.2331 -134.185 -2.3583 -6.6909 -1.451 2.31371 11.0344 -2.6198 2.14768 -5.66098 -0.457052 -3.12713 5.41464 -4.19567 -0.0132928 4.87698 -7.99631 -0.0 0.0 0.0 -0.0 0.0 0.0 2.05566e-14 -7.33582e-14 6.8444e-14 31.393 -12.4385 0.747036 -27.6759 -28.4856 34.5537 -0.0123657 6.12609 0.86109 9.03955e-10 -7.72122e-10 -4.12333e-10 1.55773e-09 -1.33404e-09 -7.17456e-10 9.03962e-10 -7.72122e-10 -4.12342e-10 7.73091 5.47488 0.417314 9.03958e-10 -7.72123e-10 -4.12334e-10 2.90554 0.965183 0.102902 9.03968e-10 -7.72123e-10 -4.12336e-10 10.2786 0.731801 0.0259123 9.0395e-10 -7.72126e-10 -4.1233e-10 2.22167 -0.733487 -0.20892 2.0531e-14 -7.33547e-14 6.83291e-14 -47.2561 7.69771 10.3831 12.7867 -7.77949 -20.2396 0.00466387 -4.12823 0.580073 -7.98863e-10 -9.82785e-10 -1.97738e-10 -1.38191e-09 -1.69943e-09 -3.47322e-10 -7.98869e-10 -9.82783e-10 -1.97726e-10 -7.73091 5.47488 -0.417314 -7.98862e-10 -9.82783e-10 -1.97735e-10 -2.90554 0.965183 -0.102902 -7.98868e-10 -9.82784e-10 -1.97734e-10 -10.2786 0.731801 -0.0259123 -7.98859e-10 -9.82784e-10 -1.97741e-10 -2.22167 -0.733487 0.20892 -2.03217e-16 0.0 -3.88251e-19 4.47346 -0.770756 3.08293 0.019348 11.8413 0.259905 -2.89861 -7.62884 -11.1221 2.03217e-16 0.0 3.88251e-19 2.46856 -20.0867 -0.429279 0.0982067 23.5957 -0.271078 1.0296 -3.06576 4.20764
-0.595511 83.3022 -133.756 -2.4919 -7.3007 -1.7676 4.15044 16.1028 -3.86223 3.20363 -8.24723 -0.643066 -4.28208 7.8303 -6.15984 0.442333 7.06878 -11.7267 -0.0 0.0 0.0 -0.0 0.0 0.0 3.29287e-14 -1.04292e-13 9.39739e-14 45.9273 -17.9743 1.1437 -28.7363 -32.8301 55.1379 -0.0813546 9.0363 1.27857 1.29464e-09 -1.08542e-09 -5.76172e-10 2.23109e-09 -1.87536e-09 -1.00254e-09 1.29465e-09 -1.08542e-09 -5.76177e-10 7.73091 5.47488 0.417314 1.29465e-09 -1.08542e-09 -5.7617e-10 2.90554 0.965183 0.102902 1.29466e-09 -1.08542e-09 -5.76172e-10 10.2786 0.731801 0.0259123 1.29464e-09 -1.08543e-09 -5.76165e-10 2.22167 -0.733487 -0.20892 3.28883e-14 -1.04287e-13 9.38477e-14 -69.8372 11.0358 15.2632 16.8397 -10.5166 -29.7702 0.0347912 -6.01217 0.847316 -1.14795e-09 -1.39568e-09 -2.91093e-10 -1.98574e-09 -2.41335e-09 -5.11171e-10 -1.14795e-09 -1.39568e-09 -2.91083e-10 -7.73091 5.47488 -0.417314 -1.14795e-09 -1.39567e-09 -2.9109e-10 -2.90554 0.965183 -0.102902 -1.14795e-09 -1.39568e-09 -2.91091e-10 -10.2786 0.731801 -0.0259123 -1.14794e-09 -1.39567e-09 -2.91097e-10 -2.22167 -0.733487 0.20892 -2.03217e-16 0.0 -3.88251e-19 6.58476 -0.187259 4.5053 -0.0242879 18.1425 0.425405 -5.53947 -12.6122 -16.536 2.03217e-16 0.0 3.88251e-19 4.06195 -26.8456 -0.739069 0.20896 32.3955 -0.414308 1.4835 -4.91097 6.22424
-0.613967 83.3397 -133.561 -2.6177 -7.165 -1.6951 5.56279 19.7246 -4.67985 3.85932 -10.0292 -0.751485 -4.94938 9.34549 -7.58475 0.960725 8.66986 -14.4254 -0.0 0.0 0.0 -0.0 0.0 0.0 4.51542e-14 -1.16093e-13 9.06955e-14 56.2242 -21.2365 1.52886 -28.0158 -30.7075 68.379 -0.163259 11.4402 1.62975 1.41108e-09 -1.15636e-09 -5.97785e-10 2.43196e-09 -1.99799e-09 -1.04022e-09 1.41108e-09 -1.15637e-09 -5.97788e-10 7.73091 5.47488 0.417314 1.41108e-09 -1.15637e-09 -5.97782e-10 2.90554 0.965183 0.102902 1.41109e-09 -1.15637e-09 -5.97784e-10 10.2786 0.731801 0.0259123 1.41107e-09 -1.15637e-09 -5.97776e-10 2.22167 -0.733487 -0.20892 4.5097e-14 -1.16088e-13 9.05464e-14 -85.8562 13.2998 18.6497 19.0747 -11.8908 -36.4784 0.0657461 -7.2966 1.03111 -1.39913e-09 -1.54708e-09 -3.64965e-10 -2.41986e-09 -2.67492e-09 -6.40381e-10 -1.39913e-09 -1.54708e-09 -3.64956e-10 -7.73091 5.47488 -0.417314 -1.39912e-09 -1.54708e-09 -3.64962e-10 -2.90554 0.965183 -0.102902 -1.39913e-09 -1.54708e-09 -3.64965e-10 -10.2786 0.731801 -0.0259123 -1.39912e-09 -1.54708e-09 -3.64972e-10 -2.22167 -0.733487 0.20892 -2.03217e-16 0.0 -3.88251e-19 8.03072 0.374289 5.50984 -0.0772249 22.3498 0.545259 -7.92698 -15.8088 -20.4518 2.03217e-16 0.0 3.88251e-19 5.16576 -31.5977 -1.08448 0.312219 38.1374 -0.521897 1.85316 -5.84528 7.76991
-0.595604 83.3782 -133.131 -2.5775 -7.9435 -1.6072 6.12036 21.3658 -4.81032 3.9622 -10.6986 -0.749301 -5.0895 9.58217 -8.21525 1.24556 9.56603 -15.623 -0.0 0.0 0.0 -0.0 0.0 0.0 5.88022e-14 -1.00437e-13 3.69895e-14 60.4616 -21.1539 1.7956 -27.8957 -28.54 72.0846 -0.227629 13.1482 1.88275 1.07725e-09 -8.1445e-10 -3.69476e-10 1.85729e-09 -1.40748e-09 -6.43192e-10 1.07726e-09 -8.14452e-10 -3.69481e-10 7.73091 5.47488 0.417314 1.07726e-09 -8.14451e-10 -3.69473e-10 2.90554 0.965183 0.102902 1.07727e-09 -8.14452e-10 -3.69475e-10 10.2786 0.731801 0.0259123 1.07725e-09 -8.14454e-10 -3.69466e-10 2.22167 -0.733487 -0.20892 5.87222e-14 -1.00434e-13 3.67954e-14 -92.0551 14.3068 19.7957 19.8061 -12.2544 -39.029 0.0792544 -7.75599 1.09725 -1.54408e-09 -1.27903e-09 -4.29312e-10 -2.66956e-09 -2.21072e-09 -7.5187e-10 -1.54408e-09 -1.27903e-09 -4.293e-10 -7.73091 5.47488 -0.417314 -1.54407e-09 -1.27902e-09 -4.2931e-10 -2.90554 0.965183 -0.102902 -1.54408e-09 -1.27903e-09 -4.29313e-10 -10.2786 0.731801 -0.0259123 -1.54407e-09 -1.27902e-09 -4.2932e-10 -2.22167 -0.733487 0.20892 -2.03217e-16 0.0 -3.88251e-19 8.56802 0.899929 5.93258 -0.101201 23.6448 0.583954 -8.91617 -16.8871 -21.9499 2.03217e-16 0.0 3.88251e-19 5.65473 -33.5437 -1.416 0.343332 39.5816 -0.536099 1.93571 -5.42029 8.62654
